<?xml version="1.0" standalone="no"?>
<!DOCTYPE svg PUBLIC "-//W3C//DTD SVG 1.1//EN" "http://www.w3.org/Graphics/SVG/1.1/DTD/svg11.dtd" >
<svg xmlns="http://www.w3.org/2000/svg">
<metadata>
<json>
<![CDATA[
{
	"fontFamily": "iconucm",
	"majorVersion": 1,
	"minorVersion": 0,
	"description": "Font generated by IcoMoon.",
	"version": "Version 1.0",
	"fontId": "iconucm",
	"psName": "iconucm",
	"subFamily": "Regular",
	"fullName": "iconucm"
}
]]>
</json>
</metadata>
<defs>
<font id="iconucm" horiz-adv-x="1024">
<font-face units-per-em="1024" ascent="960" descent="-64" />
<missing-glyph horiz-adv-x="1024" />
<glyph unicode="&#x20;" horiz-adv-x="512" d="" />
<glyph unicode="&#xe900;" glyph-name="facebook" data-tags="facebook" horiz-adv-x="640" d="M558.28 384l28.44 185.32h-177.82v120.26c0 50.7 24.84 100.12 104.48 100.12h80.84v157.78s-73.36 12.52-143.5 12.52c-146.44 0-242.16-88.76-242.16-249.44v-141.24h-162.78v-185.32h162.78v-448h200.34v448z" />
<glyph unicode="&#xe901;" glyph-name="twitter" data-tags="twitter" d="M1024.2 765.6c-37.6-16.8-78.2-28-120.6-33 43.4 26 76.6 67.2 92.4 116.2-40.6-24-85.6-41.6-133.4-51-38.4 40.8-93 66.2-153.4 66.2-116 0-210-94-210-210 0-16.4 1.8-32.4 5.4-47.8-174.6 8.8-329.4 92.4-433 219.6-18-31-28.4-67.2-28.4-105.6 0-72.8 37-137.2 93.4-174.8-34.4 1-66.8 10.6-95.2 26.2 0-0.8 0-1.8 0-2.6 0-101.8 72.4-186.8 168.6-206-17.6-4.8-36.2-7.4-55.4-7.4-13.6 0-26.6 1.4-39.6 3.8 26.8-83.4 104.4-144.2 196.2-146-72-56.4-162.4-90-261-90-17 0-33.6 1-50.2 3 93.2-59.8 203.6-94.4 322.2-94.4 386.4 0 597.8 320.2 597.8 597.8 0 9.2-0.2 18.2-0.6 27.2 41 29.4 76.6 66.4 104.8 108.6v0z" />
<glyph unicode="&#xe902;" glyph-name="linkedin" data-tags="linkedin" d="M229.257-64h-212.343v683.657h212.343v-683.657zM122.971 712.914c-67.886 0-122.971 56.229-122.971 124.114s55.086 122.971 122.971 122.971 122.971-55.086 122.971-122.971v0c0-67.886-55.086-124.114-122.971-124.114zM1023.771-64h-211.886v332.8c0 79.314-1.6 181.029-110.4 181.029-110.4 0-127.314-86.171-127.314-175.314v-338.514h-212v683.657h203.657v-93.257h2.971c28.343 53.714 97.6 110.4 200.914 110.4 214.857 0 254.4-141.486 254.4-325.257v-375.543h-0.343z" />
<glyph unicode="&#xe903;" glyph-name="instagram" data-tags="instagram" horiz-adv-x="896" d="M448.2 678c-127.2 0-229.8-102.6-229.8-229.8s102.6-229.8 229.8-229.8 229.8 102.6 229.8 229.8-102.6 229.8-229.8 229.8zM448.2 298.8c-82.2 0-149.4 67-149.4 149.4s67 149.4 149.4 149.4 149.4-67 149.4-149.4-67.2-149.4-149.4-149.4zM741 687.4c0-29.8-24-53.6-53.6-53.6-29.8 0-53.6 24-53.6 53.6s24 53.6 53.6 53.6 53.6-24 53.6-53.6zM893.2 633c-3.4 71.8-19.8 135.4-72.4 187.8-52.4 52.4-116 68.8-187.8 72.4-74 4.2-295.8 4.2-369.8 0-71.6-3.4-135.2-19.8-187.8-72.2s-68.8-116-72.4-187.8c-4.2-74-4.2-295.8 0-369.8 3.4-71.8 19.8-135.4 72.4-187.8s116-68.8 187.8-72.4c74-4.2 295.8-4.2 369.8 0 71.8 3.4 135.4 19.8 187.8 72.4 52.4 52.4 68.8 116 72.4 187.8 4.2 74 4.2 295.6 0 369.6zM797.6 184c-15.6-39.2-45.8-69.4-85.2-85.2-59-23.4-199-18-264.2-18s-205.4-5.2-264.2 18c-39.2 15.6-69.4 45.8-85.2 85.2-23.4 59-18 199-18 264.2s-5.2 205.4 18 264.2c15.6 39.2 45.8 69.4 85.2 85.2 59 23.4 199 18 264.2 18s205.4 5.2 264.2-18c39.2-15.6 69.4-45.8 85.2-85.2 23.4-59 18-199 18-264.2s5.4-205.4-18-264.2z" />
<glyph unicode="&#xe904;" glyph-name="youtube" data-tags="youtube" d="M1013.6 652.6c0 0-10 70.6-40.8 101.6-39 40.8-82.6 41-102.6 43.4-143.2 10.4-358.2 10.4-358.2 10.4h-0.4c0 0-215 0-358.2-10.4-20-2.4-63.6-2.6-102.6-43.4-30.8-31-40.6-101.6-40.6-101.6s-10.2-82.8-10.2-165.8v-77.6c0-82.8 10.2-165.8 10.2-165.8s10-70.6 40.6-101.6c39-40.8 90.2-39.4 113-43.8 82-7.8 348.2-10.2 348.2-10.2s215.2 0.4 358.4 10.6c20 2.4 63.6 2.6 102.6 43.4 30.8 31 40.8 101.6 40.8 101.6s10.2 82.8 10.2 165.8v77.6c-0.2 82.8-10.4 165.8-10.4 165.8v0zM406 315v287.8l276.6-144.4-276.6-143.4z" />
<glyph unicode="&#xe905;" glyph-name="location" data-tags="location" d="M512 960c-176.8 0-320-143.2-320-320 0-320 320-704 320-704s320 384 320 704c0 176.8-143.2 320-320 320zM512 448c-106 0-192 86-192 192s86 192 192 192 192-86 192-192-86-192-192-192z" />
<glyph unicode="&#xe906;" glyph-name="phone" data-tags="phone" d="M704 320c-64-64-64-128-128-128s-128 64-192 128-128 128-128 192 64 64 128 128-128 256-192 256-192-192-192-192c0-128 131.6-387.6 256-512s384-256 512-256c0 0 192 128 192 192s-192 256-256 192z" />
<glyph unicode="&#xe907;" glyph-name="mouseDown" data-tags="mouseDown" d="M424.96 960h-184.32c-133.12 0-240.64-107.52-240.64-240.64v-545.28c0-130.56 107.52-238.080 240.64-238.080h184.32c133.12 0 240.64 107.52 240.64 240.64v542.72c-2.56 133.12-110.080 240.64-240.64 240.64zM609.28 176.64c0-102.4-84.48-184.32-186.88-184.32h-181.76c-102.4 0-184.32 84.48-186.88 184.32v542.72c0 102.4 84.48 184.32 186.88 186.88h184.32c102.4 0 184.32-84.48 186.88-186.88v-542.72zM291.84 437.76c0 23.040 17.92 40.96 40.96 40.96v0c23.040 0 40.96-17.92 38.4-40.96 0-23.040-17.92-40.96-40.96-38.4-20.48 0-38.4 17.92-38.4 38.4zM296.96 599.040c0 20.48 15.36 35.84 35.84 35.84v0 0c20.48 0 35.84-15.36 35.84-35.84s-15.36-35.84-35.84-35.84c-20.48 0-35.84 15.36-35.84 35.84v0zM317.44 757.76c0 7.68 7.68 15.36 15.36 15.36v0c7.68 0 15.36-7.68 15.36-15.36s-7.68-15.36-15.36-15.36c-10.24 0-15.36 7.68-15.36 15.36v0zM512 289.28l-179.2-189.44-179.2 189.44 30.72 30.72 145.92-145.92 145.92 145.92 35.84-30.72zM478.72 320v0 0 0z" />
<glyph unicode="&#xe908;" glyph-name="chevron-up" data-tags="chevron-up" horiz-adv-x="1743" d="M871.004 616.057l652.147-652.147c18.040-18.040 41.865-27.91 67.223-27.91 25.528 0 49.524 9.871 67.223 27.91l57.012 57.012c18.040 18.040 27.91 42.206 27.91 67.733s-9.871 49.524-27.91 67.223l-776.041 776.382c-18.040 17.869-42.036 27.74-67.563 27.74s-49.524-9.871-67.733-27.57l-775.36-775.36c-18.040-18.040-27.91-41.865-27.91-67.393s9.871-49.524 27.91-67.223l57.182-57.693c37.27-37.27 97.686-37.27 134.956 0l650.956 651.296z" />
<glyph unicode="&#xe909;" glyph-name="chevron-down" data-tags="chevron-down" horiz-adv-x="1743" d="M871.004 279.943l-650.956 651.296c-37.27 37.27-97.686 37.27-134.956 0l-57.182-57.693c-18.040-17.699-27.91-41.695-27.91-67.223s9.871-49.353 27.91-67.393l775.36-775.36c18.21-17.699 42.206-27.57 67.733-27.57s49.524 9.871 67.563 27.74l776.041 776.382c18.040 17.699 27.91 41.695 27.91 67.223s-9.871 49.694-27.91 67.733l-57.012 57.012c-17.699 18.040-41.695 27.91-67.223 27.91-25.357 0-49.183-9.871-67.223-27.91l-652.147-652.147z" />
<glyph unicode="&#xe90a;" glyph-name="chevron-left" data-tags="chevron-left" horiz-adv-x="601" d="M202.094 447.792l383.167 383.167c10.615 10.615 16.442 24.559 16.442 39.545s-5.828 29.138-16.442 39.545l-33.509 33.509c-10.615 10.615-24.767 16.442-39.753 16.442s-29.138-5.828-39.545-16.442l-456.221-456.013c-10.407-10.615-16.234-24.767-16.234-39.753s5.828-29.138 16.234-39.753l455.597-455.597c10.615-10.615 24.559-16.442 39.545-16.442s29.138 5.828 39.545 16.442l33.925 33.509c21.854 21.854 21.854 57.444 0 79.298l-382.751 382.543z" />
<glyph unicode="&#xe90b;" glyph-name="chevron-right" data-tags="chevron-right" horiz-adv-x="601" d="M585.262 487.961l-455.597 455.597c-10.615 10.615-24.767 16.442-39.753 16.442s-29.138-5.828-39.545-16.442l-33.509-33.509c-21.854-21.854-21.854-57.444 0-79.089l382.751-382.751-383.167-383.167c-10.615-10.407-16.442-24.559-16.442-39.545s5.828-29.138 16.442-39.545l33.509-33.509c10.615-10.615 24.559-16.442 39.545-16.442s29.138 5.828 39.545 16.442l456.221 456.013c10.615 10.615 16.442 24.767 16.234 39.753 0.208 14.985-5.62 29.138-16.234 39.753z" />
<glyph unicode="&#xe90c;" glyph-name="rocket" data-tags="rocket" d="M957.979 53.221c-1.347 8.084-9.432 13.474-17.516 12.126s-13.474-9.432-12.126-17.516c0 0 0 0 0 0 8.084-35.032-13.474-68.716-48.505-75.453-4.042-1.347-9.432-1.347-13.474-1.347-8.084 0-14.821-6.737-14.821-14.821s6.737-14.821 14.821-14.821c51.2 0 94.316 41.768 94.316 94.316 0 4.042-1.347 10.779-2.695 17.516v0zM513.347 559.832c53.895 0 97.011 43.116 97.011 97.011s-43.116 97.011-97.011 97.011-95.663-44.463-95.663-97.011v0c0-53.895 43.116-97.011 95.663-97.011zM513.347 722.863c36.379 0 66.021-29.642 66.021-66.021s-29.642-66.021-66.021-66.021-66.021 29.642-66.021 66.021c0 36.379 29.642 66.021 66.021 66.021zM260.042 373.895h97.011v-59.284c-14.821-4.042-25.6-17.516-25.6-33.684v-30.989c0-18.863 16.168-35.032 35.032-35.032h25.6l17.516-40.421c5.389-13.474 18.863-21.558 33.684-21.558h141.474c14.821 0 28.295 8.084 33.684 21.558l17.516 40.421h25.6c18.863 0 35.032 16.168 35.032 35.032v30.989c0 16.168-10.779 29.642-25.6 33.684v59.284h97.011c18.863 0 33.684 14.821 33.684 33.684v67.368c0 8.084-2.695 16.168-8.084 21.558l-121.263 141.474v61.979c0 72.758-25.6 142.821-71.411 198.063-14.821 17.516-30.989 33.684-49.853 48.505-20.211 17.516-51.2 17.516-71.411 0-17.516-14.821-33.684-30.989-49.853-48.505-47.158-55.242-72.758-125.305-71.411-198.063v-61.979l-43.116-49.853c-5.389-6.737-4.042-16.168 1.347-21.558 6.737-5.389 16.168-4.042 21.558 1.347v0l20.211 22.905v-187.284h-97.011c-1.347 0-2.695 1.347-2.695 2.695v67.368c0 1.347 0 1.347 1.347 2.695l33.684 39.074c5.389 6.737 4.042 16.168-1.347 21.558-9.432 5.389-18.863 5.389-24.253-1.347v0l-33.684-39.074c-5.389-5.389-8.084-13.474-8.084-21.558v-67.368c0-18.863 14.821-33.684 33.684-33.684v0zM769.347 477.642c0 0 1.347-1.347 1.347-2.695v-67.368c0-1.347-1.347-2.695-2.695-2.695h-97.011v187.284l98.358-114.526zM590.147 186.611c-1.347-2.695-2.695-4.042-5.389-4.042h-141.474c-2.695 0-5.389 1.347-5.389 4.042l-12.126 28.295h177.853l-13.474-28.295zM451.368 877.811c13.474 16.168 29.642 32.337 45.811 45.811 9.432 8.084 22.905 8.084 32.337 0 16.168-13.474 32.337-29.642 45.811-45.811 4.042-5.389 20.211-28.295 21.558-28.295h-167.074c1.347 1.347 16.168 22.905 21.558 28.295v0zM386.695 632.589v67.368c0 41.768 9.432 82.189 26.947 119.916h199.411c17.516-37.726 26.947-78.147 26.947-119.916v-382.653h-253.305v315.284c0 0 0 0 0 0v0zM361.095 280.926c0 2.695 2.695 5.389 5.389 5.389h295.074c2.695 0 5.389-2.695 5.389-5.389v-30.989c0-2.695-2.695-5.389-5.389-5.389h-296.421c-2.695 0-5.389 2.695-5.389 5.389l1.347 30.989zM187.284 216.253c8.084 0 14.821 6.737 14.821 14.821v0 88.926c0 8.084-6.737 14.821-14.821 14.821s-14.821-6.737-14.821-14.821v-88.926c0-8.084 6.737-14.821 14.821-14.821 0 0 0 0 0 0zM237.137 320v-30.989c0-8.084 6.737-14.821 14.821-14.821s14.821 6.737 14.821 14.821c0 0 0 0 0 0v30.989c0 8.084-6.737 14.821-14.821 14.821s-14.821-6.737-14.821-14.821zM839.411 216.253c8.084 0 14.821 6.737 14.821 14.821v0 88.926c0 8.084-6.737 14.821-14.821 14.821s-14.821-6.737-14.821-14.821v0-88.926c0-8.084 6.737-14.821 14.821-14.821v0zM759.916 320v-30.989c0-8.084 6.737-14.821 14.821-14.821s14.821 6.737 14.821 14.821v30.989c0 8.084-6.737 14.821-14.821 14.821s-14.821-6.737-14.821-14.821v0zM858.274 111.158c0-8.084 5.389-14.821 13.474-14.821 8.084-1.347 16.168-2.695 22.905-6.737s16.168-1.347 20.211 6.737 1.347 16.168-6.737 20.211v0c-6.737 2.695-13.474 5.389-20.211 8.084-6.737 41.768-45.811 70.063-87.579 63.326-17.516-2.695-33.684-12.126-45.811-25.6-53.895 22.905-115.874 1.347-144.168-48.505-32.337 13.474-70.063 6.737-95.663-17.516-25.6 24.253-63.326 30.989-95.663 17.516-29.642 49.853-91.621 70.063-145.516 48.505-26.947 32.337-75.453 35.032-107.789 8.084-13.474-12.126-22.905-28.295-25.6-45.811-49.853-12.126-80.842-61.979-70.063-113.179 9.432-41.768 47.158-71.411 90.274-71.411 8.084 0 14.821 6.737 14.821 14.821s-6.737 14.821-14.821 14.821c-35.032 0-63.326 28.295-63.326 63.326 0 32.337 25.6 60.632 57.937 63.326 8.084 1.347 13.474 6.737 13.474 14.821v0c0 25.6 21.558 45.811 47.158 45.811 16.168 0 32.337-9.432 40.421-22.905 4.042-6.737 13.474-9.432 20.211-5.389 40.421 22.905 92.968 9.432 117.221-32.337-8.084-8.084-16.168-17.516-21.558-26.947-4.042-6.737-1.347-16.168 6.737-20.211 6.737-4.042 16.168-1.347 20.211 6.737v0c5.389 9.432 12.126 17.516 20.211 22.905v0c26.947 17.516 63.326 10.779 82.189-14.821 1.347-1.347 2.695-2.695 4.042-4.042 5.389-4.042 12.126-4.042 17.516 0 1.347 1.347 2.695 2.695 4.042 4.042 16.168 21.558 44.463 30.989 70.063 21.558v0c4.042-1.347 8.084-4.042 12.126-6.737v0c9.432-5.389 16.168-13.474 20.211-22.905 4.042-6.737 12.126-10.779 20.211-6.737 6.737 4.042 10.779 12.126 6.737 20.211-5.389 10.779-12.126 20.211-21.558 26.947 22.905 40.421 75.453 55.242 117.221 32.337 6.737-4.042 16.168-1.347 20.211 5.389 13.474 21.558 41.768 29.642 63.326 16.168 14.821-6.737 22.905-21.558 22.905-39.074 0 0 0 0 0 0v0zM202.105 28.968c-9.432 5.389-16.168 14.821-17.516 25.6-1.347 8.084-8.084 14.821-16.168 13.474s-14.821-8.084-13.474-16.168c0 0 0 0 0 0 1.347-21.558 14.821-39.074 33.684-48.505 6.737-4.042 16.168-1.347 20.211 6.737 2.695 6.737 0 16.168-6.737 18.863v0 0zM706.021 85.558c-6.737 4.042-16.168 2.695-20.211-4.042s-2.695-16.168 4.042-20.211c0 0 0 0 0 0 9.432-5.389 14.821-16.168 14.821-26.947 0-8.084 6.737-14.821 14.821-14.821v0c8.084 0 14.821 6.737 14.821 14.821 0 21.558-10.779 40.421-28.295 51.2v0z" />
<glyph unicode="&#xe90d;" glyph-name="transmettre" data-tags="transmettre" d="M979.2 417.28h-78.080c-21.76 0-38.4-17.92-38.4-38.4v-17.92c-79.36 24.32-163.84 17.92-238.080-19.2l-189.44-92.16-317.44 172.8c-38.4 21.76-85.76 7.68-107.52-29.44-10.24-17.92-12.8-39.68-7.68-58.88 8.96-32 29.44-40.96 44.8-55.040l151.040-138.24c78.080-71.68 158.72-145.92 161.28-147.2 0 0 1.28-1.28 1.28-1.28 35.84-26.88 84.48-33.28 126.72-17.92l259.84 98.56c37.12 12.8 78.080 11.52 115.2-3.84v-14.080c0 0 0 0 0 0 0-21.76 17.92-38.4 38.4-38.4h78.080c21.76 0 38.4 17.92 38.4 38.4v322.56c0 21.76-17.92 39.68-38.4 39.68 0 0 0 0 0 0zM734.72 102.4l-259.84-98.56c-32-12.8-66.56-7.68-94.72 12.8-3.84 3.84-28.16 25.6-161.28 147.2-76.8 71.68-157.44 145.92-160 147.2-11.52 6.4-20.48 16.64-24.32 29.44-6.4 24.32 7.68 49.92 32 56.32 11.52 3.84 24.32 1.28 35.84-5.12l298.24-161.28c-37.12-16.64-53.76-61.44-37.12-98.56 11.52-26.88 38.4-43.52 67.84-43.52 23.040 0 8.96-3.84 276.48 126.72 7.68 3.84 11.52 12.8 7.68 21.76-3.84 7.68-12.8 11.52-21.76 7.68 0 0 0 0-1.28 0l-244.48-119.040c-20.48-10.24-46.080-1.28-56.32 19.2-5.12 10.24-5.12 20.48-2.56 30.72 6.4 20.48 10.24 19.2 115.2 70.4l130.56 64c70.4 34.56 151.040 38.4 224 14.080v-221.44c-38.4 14.080-83.2 14.080-124.16 0v0zM984.32 53.76c0-3.84-2.56-6.4-6.4-6.4h-78.080c-3.84 0-6.4 2.56-6.4 6.4v323.84c0 3.84 2.56 6.4 6.4 6.4h78.080c3.84 0 6.4-2.56 6.4-6.4v-323.84zM226.56 783.36l61.44-23.040v-174.080c0-16.64 11.52-30.72 26.88-34.56v0c57.6-14.080 116.48-21.76 175.36-21.76s117.76 7.68 175.36 21.76v0c15.36 3.84 26.88 17.92 26.88 34.56v174.080l46.080 17.92v-81.92c-10.24-1.28-19.2-10.24-19.2-20.48v-29.44c0-6.4 2.56-12.8 7.68-16.64l-16.64-16.64c-6.4-6.4-6.4-16.64 0-23.040 2.56-2.56 7.68-5.12 11.52-5.12 7.68 0 11.52 5.12 15.36 8.96v-5.12c0-8.96 6.4-15.36 14.080-16.64 8.96-1.28 16.64 5.12 17.92 14.080 0 0 0 1.28 0 1.28v6.4c5.12-5.12 7.68-8.96 15.36-8.96 8.96 0 16.64 7.68 16.64 16.64 0 3.84-1.28 8.96-5.12 11.52l-16.64 16.64c10.24 7.68 7.68 16.64 7.68 44.8 0 10.24-7.68 19.2-19.2 20.48v112.64c-1.28 10.24-7.68 17.92-16.64 21.76l-256 97.28c-5.12 2.56-11.52 2.56-17.92 0l-256-97.28c-12.8-5.12-19.2-19.2-14.080-32 7.68-6.4 12.8-11.52 19.2-14.080v0zM661.76 586.24c0-1.28-1.28-2.56-2.56-2.56v0c-110.080-28.16-225.28-28.16-335.36 0v0c-1.28 0-2.56 1.28-2.56 3.84v160l161.28-61.44c5.12-2.56 11.52-2.56 17.92 0l161.28 61.44v-161.28zM491.52 894.72l232.96-88.32-232.96-88.32-232.96 88.32 232.96 88.32zM35.84 720.64h49.92c8.96 0 15.36 6.4 16.64 14.080 1.28 8.96-5.12 16.64-14.080 17.92 0 0-1.28 0-1.28 0h-49.92c-8.96 0-15.36-6.4-16.64-14.080-1.28-8.96 5.12-16.64 14.080-17.92 0 0 1.28 0 1.28 0zM144.64 870.4c6.4-6.4 16.64-6.4 23.040 0 1.28 1.28 1.28 1.28 2.56 2.56 3.84 6.4 2.56 15.36-2.56 20.48l-35.84 35.84c-6.4 6.4-16.64 6.4-23.040 0-1.28 0-1.28-1.28-2.56-2.56-3.84-6.4-2.56-15.36 2.56-20.48l35.84-35.84zM145.92 602.88l-35.84-35.84c-5.12-5.12-6.4-14.080-2.56-20.48 5.12-7.68 15.36-10.24 23.040-5.12 1.28 0 1.28 1.28 2.56 2.56l35.84 35.84c5.12 5.12 6.4 14.080 2.56 20.48-5.12 7.68-15.36 10.24-23.040 5.12-1.28-1.28-2.56-2.56-2.56-2.56zM931.84 720.64h49.92c8.96 0 15.36 6.4 16.64 14.080 1.28 8.96-5.12 16.64-14.080 17.92 0 0-1.28 0-1.28 0h-49.92c-8.96 0-15.36-6.4-16.64-14.080-1.28-8.96 5.12-16.64 14.080-17.92 0 0 0 0 1.28 0zM872.96 602.88c-6.4 6.4-16.64 6.4-23.040 0-1.28-1.28-1.28-1.28-2.56-2.56-3.84-6.4-2.56-15.36 2.56-20.48 37.12-37.12 38.4-39.68 47.36-39.68s16.64 7.68 16.64 16.64c0 3.84-1.28 8.96-5.12 11.52l-35.84 34.56zM871.68 870.4l34.56 34.56c7.68 7.68 7.68 16.64 2.56 24.32-6.4 6.4-16.64 7.68-23.040 1.28 0 0 0 0 0 0l-34.56-34.56c-6.4-6.4-6.4-16.64-1.28-23.040 3.84-7.68 15.36-8.96 21.76-2.56 0 0 0 0 0 0zM614.4 606.72c5.12 1.28 8.96 3.84 14.080 6.4 7.68 3.84 10.24 12.8 7.68 19.2-2.56 8.96-12.8 12.8-20.48 10.24-1.28 0-1.28-1.28-2.56-1.28-2.56-1.28-6.4-3.84-10.24-5.12-7.68-2.56-12.8-11.52-10.24-19.2 2.56-8.96 11.52-14.080 20.48-11.52 1.28 0 1.28 0 1.28 1.28zM503.040 592.64c15.36-1.28 30.72-1.28 46.080 0 8.96 0 15.36 7.68 15.36 15.36 0 8.96-6.4 16.64-16.64 16.64 0 0-1.28 0-1.28 0-14.080-1.28-28.16-1.28-42.24 0-8.96 0-16.64-6.4-16.64-15.36 0-7.68 6.4-15.36 15.36-16.64z" />
<glyph unicode="&#xe90e;" glyph-name="pray" data-tags="pray" d="M136.084 136.758c2.695-10.779 13.474-17.516 24.253-14.821 0 0 0 0 0 0l97.011 24.253c9.432 2.695 14.821 9.432 14.821 18.863 2.695 195.368 4.042 198.063 59.284 330.105l53.895 119.916c4.042 9.432 0 21.558-9.432 26.947-9.432 4.042-21.558 0-26.947-9.432 0 0 0 0 0 0l-53.895-121.263c-55.242-133.389-59.284-141.474-61.979-330.105l-80.842-20.211c-12.126-2.695-18.863-13.474-16.168-24.253zM869.053-20.884c-48.505 4.042-97.011 14.821-142.821 29.642-10.779 2.695-21.558-2.695-25.6-13.474-2.695-10.779 2.695-21.558 12.126-24.253 49.853-16.168 101.053-26.947 152.253-32.337 0 0 1.347 0 1.347 0 10.779 0 20.211 9.432 20.211 20.211 1.347 10.779-6.737 18.863-17.516 20.211v0zM766.653 146.189l97.011-24.253c10.779-2.695 21.558 4.042 24.253 14.821s-4.042 21.558-14.821 24.253l-80.842 20.211c-2.695 188.632-6.737 196.716-61.979 330.105l-118.568 266.779c-14.821 30.989-51.2 44.463-82.189 30.989-5.389-2.695-10.779-6.737-16.168-10.779-25.6 22.905-64.674 21.558-87.579-4.042-4.042-4.042-8.084-9.432-10.779-16.168-4.042-9.432 0-21.558 9.432-26.947 9.432-4.042 21.558 0 26.947 9.432 0 0 0 0 0 0 5.389 10.779 17.516 16.168 28.295 10.779 0 0 0 0 0 0 9.432-4.042 14.821-13.474 10.779-22.905 0-1.347-1.347-2.695-1.347-2.695l-56.589-150.905c-24.253-5.389-43.116-24.253-48.505-48.505-9.432-36.379-17.516-72.758-25.6-106.442-4.042-17.516-8.084-35.032-12.126-52.547-2.695-10.779 4.042-21.558 14.821-24.253s20.211 4.042 22.905 14.821c4.042 17.516 8.084 35.032 12.126 52.547 8.084 33.684 16.168 70.063 25.6 106.442 2.695 10.779 10.779 20.211 21.558 18.863v0c10.779-1.347 17.516-10.779 16.168-21.558s-4.042-30.989-5.389-49.853-4.042-39.074-5.389-48.505c-6.737-55.242-5.389-61.979 13.474-95.663 4.042-6.737 6.737-14.821 12.126-24.253 20.211-41.768 17.516-99.705-10.779-181.895-29.642-87.579-180.547-141.474-308.547-153.6-10.779-1.347-18.863-10.779-17.516-21.558s9.432-17.516 20.211-17.516c0 0 1.347 0 1.347 0 144.168 13.474 307.2 75.453 342.232 180.547 4.042 12.126 8.084 24.253 10.779 36.379 2.695-12.126 6.737-24.253 10.779-36.379 9.432-25.6 24.253-47.158 43.116-66.021 8.084-8.084 20.211-8.084 28.295 0s8.084 20.211 0 28.295c0 0 0 0 0 0-14.821 13.474-26.947 30.989-33.684 49.853-28.295 82.189-32.337 140.126-10.779 183.242 4.042 9.432 8.084 17.516 12.126 24.253 17.516 35.032 20.211 41.768 13.474 95.663-1.347 9.432-4.042 29.642-5.389 49.853s-4.042 39.074-5.389 49.853c-1.347 10.779 5.389 18.863 16.168 21.558v0c10.779 1.347 18.863-8.084 21.558-18.863 9.432-36.379 17.516-71.411 25.6-106.442 4.042-17.516 8.084-35.032 12.126-52.547 2.695-10.779 13.474-17.516 24.253-14.821s17.516 13.474 14.821 24.253c0 0 0 1.347 0 1.347-4.042 17.516-8.084 35.032-12.126 52.547-8.084 33.684-16.168 70.063-25.6 106.442-5.389 24.253-24.253 43.116-48.505 48.505l-57.937 145.516c-5.389 8.084-2.695 20.211 6.737 24.253 1.347 0 1.347 1.347 2.695 1.347 10.779 5.389 22.905 0 28.295-10.779 0 0 0 0 0 0l118.568-265.432c55.242-132.042 56.589-134.737 59.284-330.105 1.347-8.084 6.737-16.168 16.168-17.516zM552.421 586.779c-20.211-12.126-30.989-35.032-28.295-57.937 1.347-9.432 4.042-29.642 5.389-48.505 2.695-18.863 4.042-39.074 5.389-49.853 5.389-44.463 5.389-44.463-9.432-72.758-2.695-6.737-8.084-14.821-12.126-24.253-1.347-1.347-1.347-2.695-2.695-4.042-1.347 1.347-1.347 2.695-2.695 4.042-5.389 9.432-9.432 17.516-12.126 24.253-14.821 28.295-14.821 28.295-9.432 72.758 1.347 10.779 4.042 30.989 5.389 49.853s4.042 39.074 5.389 48.505c2.695 22.905-8.084 45.811-28.295 57.937l40.421 107.789 43.116-107.789zM512 854.905c10.779 0 20.211 9.432 20.211 20.211v64.674c0 10.779-9.432 20.211-20.211 20.211s-20.211-8.084-20.211-18.863c0 0 0-1.347 0-1.347v-64.674c0-10.779 9.432-20.211 20.211-20.211zM315.284 817.179c5.389-9.432 17.516-12.126 26.947-6.737s12.126 17.516 6.737 26.947l-32.337 55.242c-5.389 9.432-17.516 13.474-26.947 8.084s-13.474-17.516-8.084-26.947c0 0 0 0 0 0l33.684-56.589zM134.737 710.737l56.589-32.337c9.432-5.389 21.558-1.347 26.947 8.084s2.695 21.558-6.737 26.947l-56.589 32.337c-9.432 5.389-21.558 1.347-26.947-8.084-6.737-9.432-2.695-21.558 6.737-26.947zM172.463 515.368c0 10.779-9.432 20.211-20.211 20.211h-64.674c-10.779 0-20.211-8.084-20.211-18.863s8.084-20.211 18.863-20.211c0 0 1.347 0 1.347 0h64.674c10.779-1.347 20.211 8.084 20.211 18.863v0zM681.768 809.095c9.432-5.389 21.558-2.695 26.947 6.737 0 0 0 0 0 0l32.337 57.937c5.389 9.432 2.695 21.558-6.737 26.947s-21.558 2.695-26.947-6.737c0 0 0 0 0 0l-33.684-56.589c-5.389-10.779-1.347-22.905 8.084-28.295 0 0 0 0 0 0zM823.242 675.705c4.042 0 6.737 1.347 9.432 2.695l56.589 32.337c9.432 5.389 12.126 17.516 6.737 26.947s-17.516 12.126-26.947 6.737l-56.589-32.337c-9.432-5.389-12.126-17.516-6.737-26.947 4.042-5.389 10.779-9.432 17.516-9.432v0zM936.421 535.579h-64.674c-10.779 0-20.211-9.432-18.863-20.211 0-10.779 9.432-18.863 18.863-18.863h64.674c10.779 0 20.211 9.432 18.863 20.211 0 9.432-8.084 18.863-18.863 18.863zM390.737 678.4c9.432-5.389 21.558-1.347 26.947 9.432 0 0 0 0 0 0v0c5.389 9.432 1.347 21.558-9.432 26.947-9.432 5.389-21.558 1.347-26.947-9.432s-1.347-22.905 9.432-26.947v0zM653.474 39.747v0c-10.779 4.042-21.558 0-25.6-10.779s0-21.558 10.779-25.6c10.779-4.042 21.558 0 25.6 10.779 0 0 0 0 0 0 4.042 9.432 0 21.558-10.779 25.6 0 0 0 0 0 0v0z" />
<glyph unicode="&#xe90f;" glyph-name="loupe" data-tags="loupe" d="M1009.475 8.624l-210.61 210.61c65.362 79.887 101.674 181.56 101.674 290.496 0 246.922-203.348 450.27-450.27 450.27s-450.27-203.348-450.27-450.27c0-246.922 203.348-450.27 450.27-450.27 108.936 0 210.61 36.312 290.496 101.674l210.61-210.61c14.525-14.525 43.574-14.525 58.099 0s14.525 43.574 0 58.099zM79.887 509.73c0 203.348 167.035 370.383 370.383 370.383s370.383-167.035 370.383-370.383c0-203.348-167.035-370.383-370.383-370.383s-370.383 167.035-370.383 370.383z" />
<glyph unicode="&#xe910;" glyph-name="arrowUp" data-tags="arrowUp" horiz-adv-x="1938" d="M1006.14 945.116l913.86-913.86c20.837-20.837 23.814-56.558 2.977-77.395s-56.558-23.814-77.395-2.977l-878.14 878.14-875.163-875.163c-20.837-20.837-56.558-20.837-77.395 0-8.93 8.93-14.884 23.814-14.884 38.698s5.953 29.767 14.884 38.698l916.837 913.86c20.837 20.837 53.581 20.837 74.419 0v0z" />
<glyph unicode="&#xe911;" glyph-name="arrowDown" data-tags="arrowDown" horiz-adv-x="1938" d="M931.721-49.116l-913.86 913.86c-20.837 20.837-23.814 56.558-2.977 77.395s56.558 23.814 77.395 2.977l878.14-878.14 875.163 875.163c20.837 20.837 56.558 20.837 77.395 0 8.93-8.93 14.884-23.814 14.884-38.698s-5.953-29.767-14.884-38.698l-916.837-913.86c-20.837-20.837-53.581-20.837-74.419 0v0z" />
<glyph unicode="&#xe912;" glyph-name="arrowLeft" data-tags="arrowLeft" horiz-adv-x="541" d="M7.865 467.662l482.9 482.9c11.011 11.011 29.886 12.584 40.897 1.573s12.584-29.886 1.573-40.897c0 0-1.573-1.573-1.573-1.573l-462.452-462.452 462.452-462.452c11.011-11.011 11.011-29.886 0-40.897-4.719-4.719-12.584-7.865-20.449-7.865s-15.73 3.146-20.449 7.865l-482.9 484.473c-11.011 11.011-11.011 28.313 0 39.324 0 0 0 0 0 0z" />
<glyph unicode="&#xe913;" glyph-name="arrowRight" data-tags="arrowRight" horiz-adv-x="541" d="M533.235 428.338l-482.9-482.9c-11.011-11.011-29.886-12.584-40.897-1.573s-12.584 29.886-1.573 40.897l464.025 464.025-462.452 462.452c-11.011 11.011-11.011 29.886 0 40.897 4.719 4.719 12.584 7.865 20.449 7.865s15.73-3.146 20.449-7.865l482.9-484.473c11.011-11.011 11.011-28.313 0-39.324v0z" />
<glyph unicode="&#xe914;" glyph-name="home" data-tags="home" horiz-adv-x="1046" d="M1031.314 521.143v0l-482.743 431.543c-14.629 7.314-36.571 7.314-51.2 0l-482.743-431.543c-14.629-7.314-21.943-29.257-7.314-43.886s36.571-14.629 51.2 0l36.571 36.571v-533.943c0-21.943 14.629-36.571 36.571-36.571h782.629c21.943 0 36.571 14.629 36.571 36.571v526.629l36.571-36.571c14.629-14.629 36.571-14.629 51.2 0s7.314 43.886-7.314 51.2zM607.086 9.143h-168.229v292.571h168.229v-292.571zM877.714 9.143h-204.8v329.143c0 21.943-14.629 36.571-29.257 36.571h-241.371c-14.629 0-36.571-14.629-36.571-36.571v-329.143h-197.486v555.886l351.086 307.2 358.4-307.2c0 0 0 0 0 0v0-555.886zM563.2 660.114h-87.771c-14.629 0-36.571-14.629-36.571-36.571s14.629-36.571 36.571-36.571h87.771c21.943 0 36.571 14.629 36.571 36.571s-14.629 36.571-36.571 36.571z" />
<glyph unicode="&#xe915;" glyph-name="link" data-tags="link" d="M426.069 183.467l-119.467-119.467c-51.2-51.2-128-51.2-179.2 0s-51.2 128 0 179.2c0 0 0 0 0 0l238.933 238.933c51.2 51.2 128 51.2 179.2 0 17.067-17.067 42.667-17.067 59.733 0s17.067 42.667 0 59.733c0 0 0 0 0 0-85.333 85.333-221.867 85.333-298.667 0l-247.467-238.933c-85.333-85.333-85.333-221.867 0-298.667 85.333-85.333 213.333-85.333 298.667 0l119.467 119.467c17.067 17.067 17.067 42.667 0 59.733-8.533 17.067-34.133 17.067-51.2 0 0 0 0 0 0 0v0zM963.669 900.267c-85.333 85.333-221.867 85.333-298.667 0 0 0 0 0 0 0l-153.6-145.067c-17.067-17.067-17.067-42.667 0-59.733s42.667-17.067 59.733 0c0 0 0 0 0 0l145.067 145.067c51.2 51.2 128 51.2 179.2 0s51.2-128 0-179.2l-264.533-273.067c-51.2-51.2-128-51.2-179.2 0-17.067 17.067-42.667 17.067-59.733 0s-17.067-42.667 0-59.733c0 0 0 0 0 0 85.333-85.333 221.867-85.333 298.667 0l264.533 264.533c85.333 85.333 85.333 221.867 8.533 307.2z" />
<glyph unicode="&#xe916;" glyph-name="download" data-tags="download" d="M320 416c-12.8 12.8-12.8 32 0 44.8s32 12.8 44.8 0l115.2-115.2v582.4c0 19.2 12.8 32 32 32s32-12.8 32-32v-582.4l115.2 115.2c12.8 12.8 32 12.8 44.8 0s12.8-32 0-44.8l-172.8-172.8c0 0-6.4-6.4-6.4-6.4v0 0 0 0 0 0 0 0 0 0 0 0 0 0 0 0 0 0 0 0 0 0 0c0 0 0 0 0 0l-204.8 179.2zM992 275.2c-19.2 0-32-12.8-32-32v-192c0-32-25.6-51.2-51.2-51.2h-793.6c-25.6 0-51.2 25.6-51.2 51.2v192c0 19.2-12.8 32-32 32s-32-12.8-32-32v-192c0-64 51.2-115.2 115.2-115.2h787.2c64 0 115.2 51.2 115.2 115.2v192c6.4 19.2-6.4 32-25.6 32z" />
<glyph unicode="&#xe917;" glyph-name="user" data-tags="user" d="M876.8 300.8c-57.6 57.6-121.6 96-192 121.6 128 89.6 166.4 275.2 70.4 409.6s-275.2 166.4-409.6 76.8-172.8-275.2-76.8-409.6c19.2-32 44.8-57.6 76.8-76.8-204.8-76.8-345.6-268.8-345.6-486.4h83.2c0 236.8 192 435.2 435.2 435.2s435.2-192 435.2-435.2h70.4c0 134.4-51.2 268.8-147.2 364.8zM512 448c-121.6 0-217.6 96-217.6 217.6s96 211.2 217.6 211.2 217.6-96 217.6-217.6c0-115.2-96-211.2-217.6-211.2z" />
<glyph unicode="&#xe918;" glyph-name="lock" data-tags="lock" horiz-adv-x="787" d="M716.8 512v140.8c-6.4 172.8-153.6 313.6-326.4 307.2-179.2 6.4-320-134.4-326.4-307.2v-140.8h-64v-576h787.2v576h-70.4zM467.2 211.2v-121.6c0-32-32-57.6-64-57.6s-57.6 25.6-57.6 57.6v121.6c-19.2 19.2-32 44.8-32 70.4 0 51.2 44.8 89.6 96 89.6s96-38.4 96-89.6c-6.4-25.6-19.2-51.2-38.4-70.4v0zM595.2 512h-416v140.8c0 108.8 96 198.4 211.2 198.4 108.8 0 204.8-83.2 204.8-198.4v-140.8z" />
<glyph unicode="&#xe919;" glyph-name="quoteOpen" data-tags="quoteOpen" d="M438.857 879.543v-168.229c0-21.943-21.943-43.886-43.886-43.886-80.457 0-124.343-87.771-131.657-248.686h131.657c29.257 0 43.886-21.943 43.886-43.886v-358.4c0-21.943-14.629-43.886-36.571-43.886h-358.4c-21.943 0-43.886 21.943-43.886 43.886v358.4c0 73.143 7.314 146.286 21.943 219.429 14.629 58.514 36.571 117.029 73.143 175.543 29.257 51.2 73.143 87.771 124.343 117.029 58.514 21.943 117.029 36.571 182.857 36.571 21.943 0 36.571-21.943 36.571-43.886zM980.114 667.429c21.943 0 43.886 21.943 43.886 43.886v168.229c0 21.943-21.943 43.886-43.886 43.886-117.029 0-234.057-58.514-299.886-153.6-36.571-51.2-58.514-109.714-73.143-175.543-14.629-73.143-21.943-146.286-21.943-219.429v-358.4c0-21.943 14.629-43.886 36.571-43.886h358.4c21.943 0 43.886 21.943 43.886 43.886v358.4c0 21.943-21.943 43.886-43.886 43.886h-131.657c7.314 168.229 51.2 248.686 131.657 248.686z" />
<glyph unicode="&#xe91a;" glyph-name="quoteClose" data-tags="quoteClose" horiz-adv-x="1099" d="M624.39 918.374v-183.154c0-24.976 16.65-41.626 41.626-41.626v0c91.577 0 133.203-91.577 141.528-274.732h-133.203c-24.976 0-41.626-16.65-41.626-41.626v0-391.285c0-24.976 16.65-41.626 41.626-41.626v0h382.959c24.976 0 41.626 16.65 41.626 41.626v0 382.959c0 74.927-8.325 158.179-24.976 233.106-16.65 66.602-41.626 133.203-83.252 183.154-33.301 49.951-83.252 91.577-133.203 124.878-58.276 33.301-124.878 49.951-183.154 49.951-24.976 0-49.951-16.65-49.951-41.626zM41.626 685.268c-24.976 0-41.626 24.976-41.626 49.951 0 0 0 0 0 0v183.154c0 24.976 16.65 41.626 41.626 41.626 0 0 0 0 0 0 66.602 0 133.203-16.65 183.154-41.626 58.276-33.301 108.228-74.927 141.528-124.878 41.626-58.276 66.602-116.553 83.252-183.154 16.65-74.927 24.976-158.179 24.976-233.106v-391.285c0-24.976-16.65-41.626-41.626-41.626 0 0 0 0 0 0h-391.285c-24.976-8.325-41.626 16.65-41.626 41.626 0 0 0 0 0 0v382.959c0 24.976 16.65 41.626 41.626 41.626 0 0 0 0 0 0h141.528c0 183.154-49.951 274.732-141.528 274.732z" />
<glyph unicode="&#xe91b;" glyph-name="video" data-tags="video" horiz-adv-x="1195" d="M457.143 252.952c6.095 0 12.19 0 18.286 6.095l274.286 158.476c12.19 6.095 18.286 30.476 12.19 42.667 0 6.095-6.095 6.095-12.19 12.19l-274.286 164.571c-6.095 0-18.286 6.095-24.381 0-12.19 0-24.381-18.286-24.381-30.476v-316.952c0-12.19 6.095-18.286 12.19-24.381 12.19-6.095 18.286-12.19 18.286-12.19zM487.619 338.286v213.333l182.857-103.619-182.857-109.714zM1145.905 960h-1103.238c-24.381 0-42.667-18.286-42.667-42.667v-938.667c0-24.381 18.286-42.667 42.667-42.667h1103.238c24.381 0 42.667 18.286 42.667 42.667v938.667c6.095 24.381-18.286 42.667-42.667 42.667zM1036.19 155.429v97.524h97.524v-97.524h-97.524zM1036.19 320v97.524h97.524v-97.524h-97.524zM1036.19 478.476v97.524h97.524v-97.524h-97.524zM1036.19 636.952v97.524h97.524v-97.524h-97.524zM1036.19 801.524v97.524h97.524v-97.524h-97.524zM1133.714 94.476v-97.524h-97.524v97.524h97.524zM975.238 899.048v-902.095h-755.81v902.095h755.81zM60.952 801.524v97.524h97.524v-97.524h-97.524zM60.952 636.952v97.524h97.524v-97.524h-97.524zM60.952 478.476v97.524h97.524v-97.524h-97.524zM60.952 320v97.524h97.524v-97.524h-97.524zM60.952 155.429v97.524h97.524v-97.524h-97.524zM158.476 94.476v-97.524h-97.524v97.524h97.524z" />
<glyph unicode="&#xe91c;" glyph-name="photo" data-tags="photo" horiz-adv-x="1195" d="M542.476 496.762c67.048 0 121.905 54.857 121.905 121.905s-54.857 121.905-121.905 121.905c-67.048 0-121.905-54.857-121.905-121.905s54.857-121.905 121.905-121.905zM542.476 667.429c24.381 0 48.762-24.381 48.762-48.762s-24.381-48.762-48.762-48.762c-24.381 0-48.762 24.381-48.762 48.762s18.286 48.762 48.762 48.762zM1152 960h-1109.333c-24.381 0-42.667-18.286-42.667-42.667v-938.667c0-24.381 18.286-42.667 42.667-42.667h1109.333c24.381 0 42.667 18.286 42.667 42.667v938.667c0 24.381-18.286 42.667-42.667 42.667v0zM67.048 892.952h1054.476v-554.667l-219.429 219.429c-12.19 12.19-36.571 12.19-48.762 0 0 0 0 0 0 0l-310.857-310.857-201.143 195.048c-6.095 6.095-18.286 12.19-24.381 12.19-12.19 0-18.286-6.095-24.381-12.19l-219.429-219.429-6.095 670.476zM1121.524 3.048h-1054.476v121.905l243.81 243.81 201.143-201.143c6.095-6.095 18.286-12.19 24.381-12.19 12.19 0 18.286 6.095 24.381 12.19l310.857 310.857 243.81-243.81 6.095-231.619z" />
<glyph unicode="&#xe91d;" glyph-name="calendar" data-tags="calendar" d="M554.992 225.221c0-46.901 39.084-78.168 78.168-78.168h93.802c46.901 0 78.168 39.084 78.168 78.168v93.802c0 46.901-39.084 78.168-78.168 78.168h-85.985c-46.901 0-78.168-39.084-78.168-78.168 0 0 0 0 0 0v-93.802zM640.977 319.023h93.802v-93.802h-93.802v93.802zM812.947 537.893c0-21.585-17.498-39.084-39.084-39.084s-39.084 17.498-39.084 39.084c0 21.585 17.498 39.084 39.084 39.084s39.084-17.498 39.084-39.084zM640.977 537.893c0-21.585-17.498-39.084-39.084-39.084s-39.084 17.498-39.084 39.084c0 21.585 17.498 39.084 39.084 39.084s39.084-17.498 39.084-39.084zM984.916 256.489c23.45 0 39.084 15.634 39.084 39.084v422.107c0 85.985-70.351 156.336-164.153 156.336h-54.718v46.901c0 23.45-23.45 39.084-39.084 39.084-23.45 0-39.084-15.634-39.084-39.084v-39.084h-179.786v39.084c0 15.634-15.634 39.084-39.084 39.084-23.45-7.817-39.084-23.45-39.084-39.084v-39.084h-179.786v39.084c0 15.634-15.634 39.084-39.084 39.084s-39.084-15.634-39.084-39.084c0 0 0 0 0 0v-39.084h-54.718c-85.985 0-156.336-78.168-156.336-164.153v-625.344c0-85.985 70.351-156.336 156.336-164.153h703.511c85.985 0 156.336 70.351 164.153 164.153 0 23.45-23.45 39.084-39.084 39.084-23.45 0-39.084-15.634-39.084-39.084 0-46.901-39.084-78.168-78.168-78.168h-711.328c-46.901 0-78.168 39.084-78.168 78.168v625.344c0 46.901 39.084 78.168 78.168 78.168h46.901v-39.084c0-23.45 23.45-39.084 39.084-39.084 23.45 0 39.084 15.634 39.084 39.084v39.084h187.603v-39.084c0-23.45 23.45-39.084 39.084-39.084 23.45 0 39.084 15.634 39.084 39.084v39.084h179.786v-39.084c0-23.45 23.45-39.084 39.084-39.084 23.45 0 39.084 15.634 39.084 39.084v39.084h54.718c46.901 0 78.168-39.084 78.168-78.168 0 0 0 0 0 0v-422.107c7.817-23.45 23.45-39.084 46.901-39.084zM289.221 186.137c0-21.585-17.498-39.084-39.084-39.084s-39.084 17.498-39.084 39.084c0 21.585 17.498 39.084 39.084 39.084s39.084-17.498 39.084-39.084zM289.221 537.893c0-21.585-17.498-39.084-39.084-39.084s-39.084 17.498-39.084 39.084c0 21.585 17.498 39.084 39.084 39.084s39.084-17.498 39.084-39.084zM289.221 365.924c0-21.585-17.498-39.084-39.084-39.084s-39.084 17.498-39.084 39.084c0 21.585 17.498 39.084 39.084 39.084s39.084-17.498 39.084-39.084zM461.191 365.924c0-21.585-17.498-39.084-39.084-39.084s-39.084 17.498-39.084 39.084c0 21.585 17.498 39.084 39.084 39.084s39.084-17.498 39.084-39.084zM461.191 537.893c0-21.585-17.498-39.084-39.084-39.084s-39.084 17.498-39.084 39.084c0 21.585 17.498 39.084 39.084 39.084s39.084-17.498 39.084-39.084zM461.191 186.137c0-21.585-17.498-39.084-39.084-39.084s-39.084 17.498-39.084 39.084c0 21.585 17.498 39.084 39.084 39.084s39.084-17.498 39.084-39.084z" />
<glyph unicode="&#xe91e;" glyph-name="scale" data-tags="scale" d="M449.306 92.735h-292.571v292.571h78.367v-151.51l208.98 203.755 57.469-57.469-203.755-203.755h151.51v-83.592zM579.918 458.449l203.755 203.755v-151.51h78.367v292.571h-287.347v-78.367h156.735l-208.98-208.98 57.469-57.469zM1024 960v-1024h-1024v1024h1024zM945.633 881.633h-867.265v-872.49h872.49v872.49z" />
</font>
</defs>
</svg>
